PathFileType	4	(X/Y/Z)	C:/Users/opensim2020/Desktop/walking_exp_matlab/subject06_walking14_straight_04.trc	
DataRate	CameraRate	NumFrames	NumMarkers	Units	OrigDataRate	OrigDataStartFrame	OrigNumFrames	
100.00	100.00	9	45	mm	100.00	2917	227	
Frame#	Time	LFHD			RFHD			LBHD			RBHD			C7			T10			CLAV			STRN			RBAK			LSHO			LUPA			LELB			LFRM			LWRA			LWRB			LFIN			RSHO			RUPA			RELB			RFRM			RWRA			RWRB			RFIN			LASI			RASI			LPSI			RPSI			LTHI			LKNE			LTIB			LANK			LHEE			LTOE			RTHI			RKNE			RTIB			RANK			RHEE			RTOE			*39			*40			*41			*42			*43			*44			
		X1	Y1	Z1	X2	Y2	Z2	X3	Y3	Z3	X4	Y4	Z4	X5	Y5	Z5	X6	Y6	Z6	X7	Y7	Z7	X8	Y8	Z8	X9	Y9	Z9	X10	Y10	Z10	X11	Y11	Z11	X12	Y12	Z12	X13	Y13	Z13	X14	Y14	Z14	X15	Y15	Z15	X16	Y16	Z16	X17	Y17	Z17	X18	Y18	Z18	X19	Y19	Z19	X20	Y20	Z20	X21	Y21	Z21	X22	Y22	Z22	X23	Y23	Z23	X24	Y24	Z24	X25	Y25	Z25	X26	Y26	Z26	X27	Y27	Z27	X28	Y28	Z28	X29	Y29	Z29	X30	Y30	Z30	X31	Y31	Z31	X32	Y32	Z32	X33	Y33	Z33	X34	Y34	Z34	X35	Y35	Z35	X36	Y36	Z36	X37	Y37	Z37	X38	Y38	Z38	X39	Y39	Z39	X40	Y40	Z40	X41	Y41	Z41	X42	Y42	Z42	X43	Y43	Z43	X44	Y44	Z44	X45	Y45	Z45	

1	0.000	-872.28650	1152.22852	1657.29187	-1004.88727	1153.82764	1652.27771	-873.56366	1286.54492	1603.14380	-1003.21973	1285.91882	1603.81384	-931.87720	1288.93884	1447.42871	-944.29980	1324.87744	1118.96326	-946.26190	1177.34485	1371.80603	-950.57190	1137.56641	1195.97986	-1005.80853	1369.37598	1280.90857	-778.80042	1218.60168	1397.84839	-711.17340	1189.84912	1195.85437	-701.08734	1173.71948	1083.56177	-686.72601	1106.65186	948.23975	-736.00854	1016.47253	860.14825	-696.67639	1070.28442	834.84259	-699.53131	1004.65662	773.00165	-1100.70349	1241.58667	1410.52686	-1187.69592	1323.67395	1228.76086	-1202.67822	1339.26636	1106.56726	-1222.60095	1349.76245	986.63861	-1196.51331	1317.49036	837.00940	-1233.42908	1373.91882	850.61639	-1235.78223	1355.43323	767.24103	-855.51318	1137.95752	957.26312	-1074.92175	1162.92297	962.42120	-864.75671	1297.64111	987.22632	-1032.66833	1312.72656	984.92285	-804.76123	1209.95508	641.65216	-834.48694	1226.42310	479.01712	-857.62555	1290.50684	228.66597	-915.23865	1316.20557	63.01226	-960.21820	1357.80261	52.28661	-920.58917	1172.15637	33.80836	-1143.80029	1141.45374	643.49561	-1129.76868	1089.25940	528.14673	-1123.97229	1197.14124	291.58313	-1080.89331	1270.15710	120.79037	-1028.99316	1306.82837	104.24841	-1110.68689	1141.51270	42.78386	-928.95941	1253.18555	1698.80786															 
2	0.010	-873.37152	1142.50732	1657.13782	-1005.92004	1144.18469	1651.81055	-874.27014	1276.96582	1602.93188	-1004.11487	1276.28247	1603.31958	-932.33008	1279.22424	1447.12695	-944.70862	1315.53064	1118.74548	-946.82550	1167.67395	1371.43286	-950.62939	1128.21802	1195.41589	-1005.71930	1359.84900	1280.58569	-779.28094	1208.93127	1397.85339	-711.57288	1178.06177	1196.32996	-701.48712	1160.10022	1084.27063	-687.47705	1089.42444	950.72247	-737.55322	996.56720	865.82227	-698.56897	1049.61646	838.48840	-701.77753	982.09412	778.75787	-1101.17590	1232.09094	1409.90015	-1187.37354	1315.60437	1228.56287	-1202.23303	1332.14465	1106.49084	-1222.00854	1344.28125	986.67303	-1195.85840	1314.30981	836.48511	-1232.54370	1370.45776	850.86041	-1234.86414	1353.35168	767.10522	-854.99316	1129.83789	956.31262	-1074.52966	1152.77209	962.15656	-865.66919	1289.46387	986.80695	-1033.72522	1303.26929	984.98480	-805.14642	1204.51611	640.95300	-834.89459	1222.13696	478.54184	-857.70294	1288.48975	228.66920	-915.38019	1315.80676	63.21976	-960.32153	1357.56348	52.67904	-920.54034	1171.96069	33.66269	-1144.17029	1130.06177	644.33051	-1129.30981	1077.25232	529.25055	-1124.43628	1175.82483	287.84235	-1082.29553	1239.34106	112.87178	-1030.83545	1275.50732	94.82661	-1113.49365	1106.82959	41.95914	-930.06433	1243.49878	1698.46912															 
3	0.020	-874.49261	1132.79858	1656.91492	-1007.02399	1134.55969	1651.30469	-875.12378	1267.22546	1602.63184	-1004.74097	1266.45032	1602.69592	-932.85870	1269.45129	1446.77734	-945.15179	1306.14624	1118.43091	-947.35858	1157.92798	1370.99683	-950.67529	1118.67212	1194.83496	-1005.77600	1350.33337	1280.20654	-779.83392	1199.15613	1397.70996	-711.99310	1166.39868	1196.66467	-701.90192	1146.67981	1084.77722	-688.75598	1072.49854	953.14429	-739.09991	976.96466	871.60785	-700.49414	1029.27759	842.29059	-704.15430	959.83734	784.68591	-1101.70679	1222.52625	1409.22571	-1187.21167	1307.45630	1228.38989	-1201.85388	1324.88855	1106.35547	-1221.45068	1338.61121	986.65594	-1195.27087	1310.79370	836.02399	-1232.00940	1366.82080	851.29364	-1234.13562	1351.23511	767.37091	-854.53333	1121.85864	955.40735	-1074.37354	1142.80054	961.89014	-866.67346	1281.31897	986.26160	-1034.85095	1293.52051	984.90771	-805.91064	1198.92749	640.45856	-835.42773	1217.54395	477.98145	-857.85004	1286.42029	228.70609	-915.50671	1315.43665	63.40092	-960.39337	1357.33191	53.10305	-920.53363	1171.91760	33.53358	-1144.36401	1119.17761	644.67480	-1128.63171	1065.93872	529.89001	-1124.87939	1154.44666	284.06454	-1083.40649	1208.09534	105.40849	-1031.68860	1242.21448	84.78415	-1115.82458	1072.34277	41.60263	-931.15161	1233.83899	1698.02856															 
4	0.030	-875.57196	1122.99939	1656.59167	-1008.06549	1124.87573	1650.72083	-876.02338	1257.46655	1602.21704	-1005.91077	1257.03760	1601.96008	-933.41010	1259.61157	1446.37842	-945.70996	1296.83948	1118.09119	-947.89227	1148.11780	1370.47961	-950.80438	1109.11536	1194.22791	-1005.87292	1340.72766	1279.81152	-780.41449	1189.34460	1397.43359	-712.44348	1154.81140	1196.82983	-702.19586	1133.50830	1085.26868	-689.68646	1055.82202	955.54749	-740.73541	957.83545	877.49115	-702.38098	1009.08978	846.20276	-706.54999	937.91559	790.90588	-1102.28381	1212.81787	1408.47144	-1187.20044	1299.11975	1228.18835	-1201.52930	1317.51636	1106.20642	-1220.94910	1332.74500	986.64209	-1194.74890	1306.90051	835.65961	-1231.40088	1362.91724	851.58960	-1233.41724	1348.51636	767.43207	-854.13330	1113.80896	954.52185	-1074.14612	1132.69788	961.40784	-867.72876	1273.16431	985.65509	-1035.98535	1283.84241	984.60889	-806.56348	1193.25208	639.87842	-835.83624	1213.14697	477.47598	-858.03638	1284.32910	228.78993	-915.61255	1315.06238	63.63800	-960.47729	1357.14136	53.57106	-920.44458	1171.83179	33.45128	-1144.37732	1108.87598	644.44775	-1128.25562	1054.96643	530.17987	-1125.24011	1133.08472	280.42810	-1084.73633	1176.84753	98.83767	-1032.87781	1209.82935	76.51556	-1117.43311	1037.84668	41.32924	-932.25824	1224.19238	1697.51318															 
5	0.040	-876.66437	1113.33533	1656.18030	-1009.08899	1115.19971	1650.07080	-876.93079	1247.64673	1601.65515	-1006.76190	1247.23840	1601.12341	-934.01422	1249.75964	1445.93860	-946.39130	1287.50818	1117.67627	-948.52557	1138.28052	1369.86560	-951.04150	1099.58618	1193.46118	-1006.13501	1331.08142	1279.40613	-781.00720	1179.43347	1397.11023	-712.93994	1143.37402	1196.84741	-702.79907	1120.68835	1085.41199	-690.87054	1039.44348	957.91919	-742.71088	938.53632	883.50696	-704.45886	989.27338	850.15479	-708.97357	916.36011	797.22198	-1102.86316	1203.02722	1407.67871	-1187.02649	1290.60364	1227.82410	-1201.27368	1309.93262	1105.98547	-1220.54651	1326.58142	986.56097	-1194.29529	1302.72815	835.14648	-1230.96350	1358.60571	851.99219	-1232.78540	1345.38269	767.48273	-853.71143	1105.76233	953.54773	-1074.42725	1122.68823	960.94470	-868.79407	1264.89551	984.94177	-1037.11682	1274.22559	984.18750	-807.41901	1187.31824	639.16333	-836.40540	1208.35315	476.85825	-858.27673	1282.30933	228.93320	-915.69098	1314.70032	63.94601	-960.49255	1356.93799	54.07257	-920.41046	1171.91870	33.39801	-1144.64502	1099.15796	644.06683	-1127.76086	1044.76831	530.06531	-1125.75659	1111.66345	276.72992	-1086.00439	1145.61755	92.99630	-1033.93018	1176.77722	68.63463	-1118.51440	1003.90839	41.71383	-933.33569	1214.49194	1696.89734															 
6	0.050	-877.72040	1103.50671	1655.68396	-1010.14026	1105.46387	1649.34338	-877.92163	1237.70288	1600.96851	-1007.70074	1237.50989	1600.29065	-934.58008	1239.73157	1445.31616	-947.10986	1278.18213	1117.16113	-949.10999	1128.33276	1369.10095	-951.25372	1090.08032	1192.55969	-1006.50714	1321.41895	1278.96204	-781.61969	1169.47375	1396.67676	-713.45142	1132.03516	1196.75049	-703.37262	1107.98950	1085.55444	-692.10321	1023.37213	960.28027	-744.44299	921.02551	889.15222	-706.59308	969.99658	854.27075	-711.38855	895.33856	803.70117	-1103.46863	1193.12805	1406.83618	-1187.19849	1281.86316	1227.47778	-1201.06299	1302.09521	1105.68555	-1220.21094	1320.16724	986.45081	-1194.00928	1298.14038	834.65466	-1230.34985	1353.84033	852.14667	-1232.27893	1341.86060	767.54633	-853.50543	1097.56604	952.56982	-1074.19446	1112.68127	960.21985	-869.87531	1256.58167	984.17334	-1038.27209	1264.57129	983.58276	-807.72052	1181.29895	638.43640	-837.09283	1203.29260	476.20819	-858.40289	1280.13623	229.04189	-915.69983	1314.37415	64.31301	-960.46667	1356.69507	54.57857	-920.32281	1171.85974	33.30116	-1144.46521	1089.89709	643.04126	-1127.38477	1034.81458	529.40192	-1126.06714	1090.57129	273.33411	-1086.89648	1114.16687	87.58807	-1035.04541	1144.65063	62.47592	-1119.05676	970.03839	42.18180	-934.42419	1204.79297	1696.18237															 
7	0.060	-878.77130	1093.69336	1655.05481	-1011.19464	1095.67993	1648.51514	-878.86102	1227.90112	1600.23438	-1008.58582	1227.61584	1599.33435	-935.26404	1229.76892	1444.66089	-947.96844	1268.89978	1116.59790	-949.76038	1118.35095	1368.30798	-951.54285	1080.46069	1191.65198	-1006.95569	1311.66479	1278.52649	-782.32098	1159.49707	1396.20520	-714.01062	1120.80627	1196.60437	-703.98877	1095.38940	1085.67029	-693.38721	1007.62976	962.69189	-746.38495	903.34949	895.02679	-708.73199	951.03174	858.38538	-713.84985	874.84637	810.29608	-1104.10364	1183.17395	1405.96484	-1187.18762	1272.97009	1226.96350	-1200.96716	1294.03345	1105.35559	-1219.99780	1313.45325	986.26886	-1193.72827	1293.03345	834.28857	-1230.07544	1348.71790	852.39838	-1231.85730	1337.89758	767.62457	-853.28992	1089.70642	951.45404	-1074.33813	1102.93982	959.53912	-870.97729	1248.14294	983.40045	-1039.39954	1254.20410	982.70844	-808.37421	1175.03247	637.72955	-837.56860	1197.97510	475.56168	-858.61731	1277.81763	229.29910	-915.75031	1313.87659	64.67603	-960.63385	1356.65076	55.47577	-920.26471	1171.78027	33.24773	-1144.59631	1081.06421	641.89319	-1126.94019	1025.30640	528.39606	-1126.21765	1069.76563	270.14258	-1087.96924	1083.25403	83.18311	-1036.03601	1112.67493	57.12835	-1119.08057	936.77704	42.99454	-935.49817	1195.03564	1695.34985															 
8	0.070	-879.77826	1083.90161	1654.30237	-1012.24042	1085.88525	1647.59460	-879.62463	1217.99768	1599.35547	-1009.35583	1217.65430	1598.28955	-935.94879	1219.69507	1443.89343	-948.86145	1259.61145	1115.96155	-950.41376	1108.30920	1367.36938	-951.84009	1070.88904	1190.67493	-1007.51624	1301.90955	1278.03333	-783.02673	1149.39844	1395.64709	-714.66614	1109.55859	1196.38879	-704.64410	1083.00232	1085.79382	-694.78876	992.11230	965.00391	-748.32587	886.03662	900.87482	-711.18787	932.68365	862.48785	-716.37695	854.83203	816.96973	-1104.74377	1173.10596	1405.00989	-1187.48572	1263.86877	1226.44641	-1200.94080	1285.76343	1104.93689	-1219.84741	1306.37817	986.01837	-1193.66382	1287.72717	833.83252	-1229.85828	1343.22046	852.51868	-1231.52515	1333.41785	767.56781	-853.33856	1080.92773	950.51819	-1074.37476	1092.91370	958.65808	-872.11755	1239.58899	982.51910	-1040.59924	1244.40820	981.82697	-809.01361	1168.67017	636.95477	-838.13214	1192.50403	474.92334	-858.79266	1275.18958	229.44331	-915.85120	1313.31897	65.13265	-960.58826	1356.34839	56.39106	-920.19470	1171.63330	33.19880	-1144.50391	1072.40930	640.29248	-1126.46570	1016.06171	527.02338	-1126.21997	1049.34180	267.20941	-1088.98718	1052.52490	79.54317	-1037.22192	1080.37048	51.86835	-1118.81848	904.24115	44.31253	-936.52942	1185.24158	1694.44397															 
9	0.080	-880.80396	1073.88879	1653.41394	-1013.23956	1076.01550	1646.59363	-880.45209	1207.98157	1598.27209	-1010.23444	1207.69006	1597.13062	-936.64233	1209.58386	1442.98547	-949.86078	1250.22461	1115.25195	-951.11877	1098.15588	1366.30591	-952.14026	1061.15234	1189.47205	-1008.07513	1292.04785	1277.40894	-783.77588	1139.25842	1394.97632	-715.37061	1098.30273	1196.12402	-705.39191	1070.59082	1085.86121	-696.28564	976.84698	967.35675	-750.34668	869.30774	906.54596	-713.00317	914.64294	866.60535	-718.62903	835.56561	823.43982	-1105.41089	1162.96765	1403.96570	-1187.68799	1254.69360	1225.78052	-1201.02112	1277.24390	1104.40234	-1219.83105	1298.96985	985.67969	-1193.64795	1281.85925	833.26874	-1229.75525	1337.16614	852.50012	-1231.28455	1328.39746	767.41113	-853.35730	1072.36353	949.34796	-1074.66211	1083.00574	957.74329	-873.26477	1230.91431	981.55786	-1041.78210	1234.49854	980.85693	-809.60498	1161.98987	636.13824	-838.62958	1186.76563	474.14252	-858.97278	1272.45850	229.55968	-915.82562	1312.80859	65.66533	-960.78448	1356.10254	57.35436	-920.15558	1171.46411	33.11359	-1144.35059	1064.00061	638.45575	-1125.73621	1007.06763	525.26440	-1126.39124	1029.24097	264.57169	-1090.19263	1022.45502	76.84763	-1038.53528	1049.37048	48.34155	-1117.88306	872.11523	46.12228	-937.54822	1175.35925	1693.39294															 
